# xmcd
#
# Track frame offsets: 
#        150
#        21219
#        35679
#        55221
#        75026
#        100395
#        121121
#        135262
#        153923
#        174384
#
# Disc length: 2651 seconds
#
# Revision: 0
# Processed by: cddbd v1.5.2PL0 Copyright (c) Steve Scherf et al.
# Submitted via: ExactAudioCopy v1.3
#
DISCID=6b0a590a
DTITLE=Erin Harpe and The Delta Swingers - Love Whip Blues
DYEAR=2014
DGENRE=Blues
TTITLE0=The Delta Swing
TTITLE1=Love Whip Blues
TTITLE2=Future Blues
TTITLE3=Good Luck Baby
TTITLE4=M&O Blues
TTITLE5=One Way Man
TTITLE6=Pick Poor Robin Clean
TTITLE7=Virtual Booty Blues
TTITLE8=Charles River Delta Blues
TTITLE9=Angel From Montgomery
EXTD=
EXTT0=
EXTT1=
EXTT2=
EXTT3=
EXTT4=
EXTT5=
EXTT6=
EXTT7=
EXTT8=
EXTT9=
PLAYORDER=
